<svg preserveAspectRatio="none" width="100%" height="100%" overflow="visible" style="display: block;" viewBox="0 0 1377 92.9894" fill="none" xmlns="http://www.w3.org/2000/svg">
<g id="Group 13">
<path id="Vector" d="M303.5 88.7118C301.986 91.6891 299.497 93.0367 296.795 92.2661C294.356 91.5712 292.563 89.1834 292.532 86.0587C290.563 88.3706 287.725 88.8086 285.465 87.2968C283.206 85.7849 282.01 82.8413 282.938 79.7965C280.371 81.2705 277.599 80.5503 275.976 78.5332C274.136 76.2422 274.008 72.9238 275.86 70.5444C273.06 70.9403 270.576 69.4621 269.586 66.9143C268.537 64.2065 269.193 61.2291 271.744 59.2288C268.964 58.496 267.089 56.2304 267.004 53.3751C266.91 50.3262 268.596 47.9216 271.434 47.0919C268.79 45.2264 267.835 42.5354 268.669 39.7391C269.461 37.0944 271.81 35.2078 274.73 35.4647C272.909 33.2201 272.614 30.2469 274.023 27.8591C275.433 25.4714 278.151 24.4522 281.191 25.5345C280.239 22.6709 280.927 19.803 283.012 18.1733C285.205 16.4551 287.9 16.3708 290.392 18.5481C290.338 15.2928 291.86 13.1155 294.248 12.2186C296.896 11.2247 299.423 12.4544 301.097 15.238C302.094 12.1638 304.455 10.3445 307.099 10.5888C309.743 10.833 311.781 12.7576 312.267 15.9034C314.022 13.1956 316.658 12.3617 319.255 13.4482C321.496 14.3873 323.041 16.8383 322.796 20.2663C325.064 18.5144 327.766 18.666 329.742 20.3252C331.92 22.1529 332.518 25.0544 331.268 28.2129C333.967 27.3496 336.649 28.4445 337.95 30.7944C339.375 33.3633 338.983 36.488 336.878 38.72C339.581 38.8084 341.786 40.6698 342.419 43.2218C343.16 46.2118 341.864 49.0165 339.119 50.5452C341.716 51.8128 343.292 54.3437 342.955 57.1231C342.59 60.13 340.547 62.3198 337.597 62.6315C339.786 64.4592 340.478 67.685 339.251 70.3212C338.024 72.9575 335.376 74.2461 332.623 73.4797C334.137 76.1201 333.815 79.1312 332.049 81.1062C330.115 83.2624 327.483 83.7762 324.726 82.138C325.2 85.3006 323.988 87.9411 321.632 89.1624C319.275 90.3836 316.755 89.7898 314.565 87.4231C314.356 90.1983 312.29 92.405 310.127 92.8514C307.084 93.4789 304.645 91.9376 303.492 88.7118H303.5ZM310.43 16.6656C310.43 14.4168 308.749 12.5976 306.68 12.5976C304.61 12.5976 302.929 14.421 302.929 16.6656C302.929 18.9102 304.61 20.7337 306.68 20.7337C308.749 20.7337 310.43 18.9102 310.43 16.6656ZM299.827 18.0259C299.827 15.7728 298.142 13.9452 296.065 13.9452C293.988 13.9452 292.303 15.7728 292.303 18.0259C292.303 20.2789 293.988 22.1066 296.065 22.1066C298.142 22.1066 299.827 20.2789 299.827 18.0259ZM320.874 19.1166C320.874 16.872 319.197 15.0527 317.128 15.0527C315.058 15.0527 313.381 16.872 313.381 19.1166C313.381 21.3612 315.058 23.1804 317.128 23.1804C319.197 23.1804 320.874 21.3612 320.874 19.1166ZM290.155 23.033C290.155 20.7885 288.478 18.9692 286.409 18.9692C284.339 18.9692 282.662 20.7885 282.662 23.033C282.662 25.2776 284.339 27.0969 286.409 27.0969C288.478 27.0969 290.155 25.2776 290.155 23.033ZM313.412 83.0434C314.045 80.5251 315.252 78.9417 316.677 78.1752C318.7 77.0929 320.498 77.3709 322.466 78.5542C322.047 76.0106 322.579 73.9471 324.136 72.4816C325.572 71.134 327.347 70.6244 329.529 70.9571C328.387 68.8852 328.224 66.7711 329.261 64.6571C330.006 63.1326 331.672 61.7218 333.838 61.4397C332.371 59.6878 331.451 57.9106 331.746 55.5692C331.998 53.5688 333.093 51.9391 335.19 50.7305C332.945 49.7745 331.819 47.9974 331.451 46.1149C330.992 43.7987 331.699 41.7142 333.349 40.2823C331.128 40.076 329.168 38.9053 328.216 37.0565C327.207 35.0983 327.405 32.9169 328.181 30.9755C325.871 31.7251 324.008 31.0934 322.451 29.5226C321.138 28.2003 320.443 26.322 320.739 23.9722C318.7 25.3829 316.771 25.6188 314.825 24.7344C313.191 23.9932 311.976 22.2034 311.467 19.9251C310.259 21.7823 308.431 22.8899 306.408 22.7888C304.42 22.6877 302.665 21.4749 301.64 19.4198C300.864 21.7781 299.384 23.3742 297.552 23.9216C295.603 24.5028 293.821 23.85 292.085 22.4687C292.101 24.9786 291.18 26.8611 289.705 28.036C288.067 29.3373 286.121 29.4089 284.056 28.7098C284.766 31.1018 284.483 33.3633 283.14 35.1488C282.014 36.6396 280.135 37.3682 278.209 37.3724C279.579 39.3769 280.096 41.4404 279.377 43.6219C278.803 45.3611 277.549 46.8393 275.351 47.5425C277.044 48.9996 278.201 50.6294 278.306 52.6087C278.426 54.9038 277.471 56.7189 275.654 58.3486C277.782 58.9593 279.315 60.3321 279.995 62.0966C280.81 64.2107 280.356 66.2574 279.292 68.3546C281.563 68.1903 283.489 69.1042 284.708 70.8181C285.857 72.4311 285.974 74.5619 285.586 76.6844C287.55 75.5179 289.616 75.7327 291.445 76.9329C292.924 77.9015 293.821 79.8344 293.999 82.0496C295.878 80.5082 297.707 79.7671 299.835 80.4282C301.493 80.9462 302.952 82.4244 303.675 84.4879C304.746 82.1633 306.462 80.9757 308.539 80.7651C310.333 80.584 312.143 81.5442 313.408 83.0434H313.412ZM330.037 25.1218C330.037 22.8772 328.36 21.0538 326.287 21.0538C324.213 21.0538 322.536 22.873 322.536 25.1218C322.536 27.3706 324.213 29.1899 326.287 29.1899C328.36 29.1899 330.037 27.3706 330.037 25.1218ZM282.546 31.1902C282.546 28.9456 280.868 27.1222 278.795 27.1222C276.722 27.1222 275.045 28.9414 275.045 31.1902C275.045 33.4391 276.722 35.2583 278.795 35.2583C280.868 35.2583 282.546 33.4391 282.546 31.1902ZM336.882 34.0371C336.882 31.7967 335.209 29.9816 333.143 29.9816C331.078 29.9816 329.404 31.7967 329.404 34.0371C329.404 36.2774 331.078 38.0925 333.143 38.0925C335.209 38.0925 336.882 36.2774 336.882 34.0371ZM277.786 41.5878C277.786 39.3432 276.108 37.524 274.039 37.524C271.969 37.524 270.292 39.3432 270.292 41.5878C270.292 43.8324 271.969 45.6517 274.039 45.6517C276.108 45.6517 277.786 43.8324 277.786 41.5878ZM340.722 44.8642C340.722 42.6154 339.041 40.7919 336.968 40.7919C334.894 40.7919 333.213 42.6154 333.213 44.8642C333.213 47.113 334.894 48.9365 336.968 48.9365C339.041 48.9365 340.722 47.113 340.722 44.8642ZM276.372 53.0846C276.372 50.8442 274.699 49.0291 272.633 49.0291C270.568 49.0291 268.894 50.8442 268.894 53.0846C268.894 55.3249 270.568 57.14 272.633 57.14C274.699 57.14 276.372 55.3249 276.372 53.0846ZM341.103 56.4662C341.103 54.2132 339.422 52.3897 337.344 52.3897C335.267 52.3897 333.586 54.2132 333.586 56.4662C333.586 58.7192 335.267 60.5427 337.344 60.5427C339.422 60.5427 341.103 58.7192 341.103 56.4662ZM278.527 64.4802C278.527 62.2314 276.846 60.4079 274.773 60.4079C272.699 60.4079 271.018 62.2314 271.018 64.4802C271.018 66.729 272.699 68.5525 274.773 68.5525C276.846 68.5525 278.527 66.729 278.527 64.4802ZM337.966 67.5713C337.966 65.3225 336.284 63.499 334.211 63.499C332.138 63.499 330.457 65.3225 330.457 67.5713C330.457 69.8201 332.138 71.6435 334.211 71.6435C336.284 71.6435 337.966 69.8201 337.966 67.5713ZM283.943 74.4777C283.943 72.2289 282.262 70.4012 280.185 70.4012C278.108 70.4012 276.427 72.2247 276.427 74.4777C276.427 76.7307 278.108 78.5542 280.185 78.5542C282.262 78.5542 283.943 76.7307 283.943 74.4777ZM331.695 76.9624C331.695 74.7178 330.018 72.9027 327.952 72.9027C325.887 72.9027 324.21 74.722 324.21 76.9624C324.21 79.2027 325.887 81.022 327.952 81.022C330.018 81.022 331.695 79.2027 331.695 76.9624ZM292.05 82.0369C292.05 79.7839 290.369 77.9604 288.292 77.9604C286.215 77.9604 284.534 79.7839 284.534 82.0369C284.534 84.2899 286.215 86.1134 288.292 86.1134C290.369 86.1134 292.05 84.2899 292.05 82.0369ZM322.94 83.654C322.94 81.4052 321.259 79.586 319.189 79.586C317.12 79.586 315.439 81.4094 315.439 83.654C315.439 85.8986 317.12 87.7221 319.189 87.7221C321.259 87.7221 322.94 85.8986 322.94 83.654ZM301.982 86.324C301.982 84.0794 300.305 82.2601 298.235 82.2601C296.166 82.2601 294.488 84.0794 294.488 86.324C294.488 88.5686 296.166 90.3878 298.235 90.3878C300.305 90.3878 301.982 88.5686 301.982 86.324ZM312.659 86.8883C312.659 84.6437 310.982 82.8202 308.908 82.8202C306.835 82.8202 305.158 84.6395 305.158 86.8883C305.158 89.1371 306.835 90.9564 308.908 90.9564C310.982 90.9564 312.659 89.1371 312.659 86.8883Z" fill="var(--fill-0, #202020)"/>
<path id="Vector_2" d="M91 46.1202L45.3231 92.9891L0.665151 47.2992C0.386896 47.0139 0.0341784 46.4978 0.00282573 46.2335C-0.0363651 45.8852 0.339867 45.218 0.649474 44.8865L21.6714 22.4004L49.1246 22.1906L68.8533 22.413L91 46.1118V46.1202ZM21.3148 45.1089L31.4574 24.3557L22.4474 24.4984L3.25174 45.1089H21.3148ZM44.3472 45.0712L44.3159 24.2298L33.6246 24.3515L23.5016 45.0921L44.3472 45.0712ZM67.0387 45.025L56.9314 24.3263L46.2715 24.255L46.2833 45.1383L67.0387 45.025ZM87.2925 45.1131L68.0695 24.4984L59.1575 24.3935L69.2765 45.1089H87.2925V45.1131ZM46.3303 87.4084L67.0544 47.1734H46.2637L46.3303 87.4084ZM41.0591 85.5287L21.3501 47.1734L3.39675 47.2363L26.9935 71.4092L35.9878 80.6697L41.0552 85.5245L41.0591 85.5287ZM44.3198 47.1692L23.5291 47.2027L44.3041 87.4714L44.3198 47.1692ZM87.1397 47.2699L69.2099 47.1943L49.8026 85.3944L87.1397 47.2657V47.2699Z" fill="var(--fill-0, #202020)"/>
<path id="Vector_3" d="M1357.76 92.9427L1330.41 92.9891L1311.04 72.2565L1311 42.8389L1330.23 22.1906H1357.62L1376.96 42.9063L1377 72.2691L1357.76 92.9427ZM1343.02 37.8243V24.2091L1331.03 24.2807L1322.68 33.2522L1335.04 46.4629L1343.02 37.8201V37.8243ZM1365.35 33.2353L1356.9 24.2048L1344.96 24.2512L1344.93 37.7316L1353.07 46.4882L1365.35 33.2353ZM1325.72 56.4542L1333.62 47.9294L1321.3 34.7102L1312.93 43.6986L1312.95 56.53L1325.72 56.4542ZM1375.12 56.471V43.7281L1366.65 34.6175L1354.34 47.8324L1362.43 56.5342L1375.12 56.4752L1375.12 56.471ZM1343.95 39.5436L1327.17 57.5372L1344.01 75.6108L1360.79 57.6172L1343.95 39.5436ZM1333.66 67.3009L1325.47 58.5864L1312.94 58.5485L1312.93 71.578L1321.36 80.4526L1333.65 67.3051L1333.66 67.3009ZM1375.16 71.2704L1375.11 58.5696L1362.39 58.5991L1354.37 67.2545L1366.67 80.4231L1375.16 71.2704H1375.16ZM1343 90.92L1343.01 77.3764L1334.89 68.6662L1322.61 81.9485L1331.12 90.9875L1343 90.9243V90.92ZM1356.86 90.9622L1365.28 81.8895L1352.97 68.7041L1344.95 77.3174V91.0085L1356.86 90.9664V90.9622Z" fill="var(--fill-0, #202020)"/>
<path id="Vector_4" d="M1094.53 90.4898C1088.48 93.5688 1082.21 93.7644 1076.22 91.2893C1058.77 84.0851 1052.02 66.7125 1050 47.1667C1064.03 42.1867 1070.55 28.969 1072.39 13.5272L1075.96 11.1499C1082.61 6.72274 1090.85 7.86249 1096.61 13.7228C1098.53 28.8457 1104.88 42.2803 1119 47.1029C1117.04 65.6918 1110.99 82.6689 1094.52 90.4898H1094.53ZM1078.13 16.1767C1083.51 19.2089 1089.67 18.2095 1094.41 14.1183C1087.92 8.96396 1081.48 9.37648 1074.55 14.1609L1078.13 16.1767ZM1093.3 62.4129C1096.75 59.7634 1099.01 56.7907 1101.09 53.2779C1103.21 49.3271 1104.81 45.1636 1105.97 40.796C1099.67 34.0851 1096.58 25.2053 1095.17 15.9598C1087.83 21.4161 1081.15 20.5188 1073.82 15.9725C1072.38 25.5541 1069.18 34.1915 1063.04 40.8726C1065.36 49.3186 1068.89 57.0927 1075.66 62.4172C1077.68 59.0192 1081.54 58.0241 1084.5 60.7076C1087.37 58.1772 1091.24 58.8406 1093.3 62.4172V62.4129ZM1094.05 64.2501C1093.95 66.0235 1093.83 68.3115 1092.62 69.6256L1084.49 78.4629L1076.6 69.8978C1075.27 68.4519 1075.02 66.2021 1074.97 64.3309C1072.71 62.3449 1070.46 60.2355 1068.63 57.7136C1065.46 53.0781 1063.2 48.0725 1061.65 42.2888C1058.52 45.0956 1055.34 47.0179 1051.82 48.4808C1052.85 55.7148 1054.23 62.4725 1056.94 68.8857C1060.74 78.178 1067.23 85.1908 1075.73 89.0694C1081.62 91.7614 1087.51 91.7231 1093.37 89.0141C1109.04 81.7588 1114.98 66.0405 1117.09 48.4383C1113.45 46.9838 1110.41 44.9595 1107.38 42.3228C1104.76 51.2536 1101.07 58.764 1094.04 64.2586L1094.05 64.2501ZM1091.38 68.1542C1093.03 66.3042 1092.21 63.255 1090.79 62.0855C1087.03 58.9809 1085.11 63.9609 1083.63 62.4129C1081.76 60.4652 1079.4 60.7373 1077.78 62.5533C1076.42 64.08 1076.26 66.7763 1077.9 68.5752L1084.51 75.8517L1091.38 68.1542H1091.38Z" fill="var(--fill-0, #202020)"/>
<g id="Group">
<path id="Vector_5" d="M820.526 60.6779L806.162 92.2716L805.228 92.9616C805.025 93.1131 804.481 92.5156 804.29 92.2674L789.926 60.7242L796.453 41.8454L796.508 37.6927C796.524 32.9551 799.666 29.4166 804.079 29.0969L804.22 13.7271C804.255 9.63325 807.741 7.17189 811.028 7.25604C814.581 7.34861 817.001 11.7243 816.559 14.8336C816.508 15.1955 815.523 15.8476 815.328 15.6415C814.312 14.5812 814.87 9.45653 810.673 9.35135C808.468 9.29665 806.107 11.1479 806.072 13.9837L805.9 29.1474C810.594 29.0969 814.202 32.9341 814.022 38.1092C814.046 39.1232 813.807 41.2942 814.112 42.1778L820.534 60.6737L820.526 60.6779ZM812.111 40.9114L811.962 36.4935C811.837 32.7784 808.499 31.2342 805.439 31.1291C801.62 30.9986 798.411 33.3211 798.4 37.6969L798.392 40.9029H812.115L812.111 40.9114ZM815.058 50.6684L812.259 42.9436L806.193 42.9225L806.217 61.187L815.058 50.6684ZM804.184 60.9935L804.306 43.0109H798.087L795.441 50.6642L804.188 60.9935H804.184ZM802.359 62.1463L794.694 52.7637L792.213 59.9206L802.363 62.1463H802.359ZM818.232 59.8785L815.722 52.911L807.995 62.2305L818.232 59.8743V59.8785ZM803.434 64.6203L792.701 62.1379L797.188 72.0717L803.438 64.6203H803.434ZM813.284 71.9875L817.735 62.1169L807.046 64.6119L813.284 71.9875ZM812.361 73.9776L806.186 66.6314L806.244 87.1932L812.361 73.9818V73.9776ZM804.118 87.0165L804.224 66.7955L798.071 74.0155L804.122 87.0123L804.118 87.0165Z" fill="var(--fill-0, #202020)"/>
<path id="Vector_6" d="M859.369 60.628L845.064 92.0407C844.935 92.3184 844.513 92.8191 844.29 92.9579C843.993 93.1389 843.239 92.4909 843.082 92.1501L828.742 60.6574L835.336 41.6734L835.476 36.3342C835.992 32.3119 839.088 29.2783 842.832 29.1142L843.028 13.7571C843.079 9.83995 846.186 7.28183 849.399 7.24396C852.862 7.20189 855.543 10.6225 855.418 14.4387C855.406 14.8468 854.816 15.5915 854.472 15.621C852.963 15.7472 854.163 9.60434 849.762 9.31823C847.53 9.17097 844.99 10.7992 844.951 13.7024L844.736 29.0385C848.926 29.0974 852.314 32.2277 852.826 36.7507L852.799 41.7702L859.369 60.6322V60.628ZM850.845 40.8572C850.915 38.9681 850.982 37.0663 850.646 35.6736C849.801 32.1394 846.733 31.0959 843.719 31.117C840.253 31.1422 837.309 33.3722 837.27 37.3314L837.235 40.8656H850.845V40.8572ZM843.086 61.0992L843.149 42.881L836.946 42.9146L834.265 50.6227L843.09 61.1034L843.086 61.0992ZM853.843 50.6479L851.157 42.9609L845.056 42.8768L845.037 61.1918L853.843 50.6521V50.6479ZM857.044 59.879L854.593 52.7432L846.983 62.0964L857.044 59.8748V59.879ZM841.167 62.0795L833.514 52.8021L831.052 59.8286L841.167 62.0795ZM842.285 64.5409L831.521 62.109L836.035 71.9249L842.285 64.5409ZM852.123 71.8787L856.485 62.1132L845.904 64.5451L852.123 71.8787ZM843.024 87.219L843.082 66.6783L836.903 73.9866L843.024 87.2232V87.219ZM851.224 73.8477L845.06 66.7245L845.099 87.0717L851.228 73.8477H851.224Z" fill="var(--fill-0, #202020)"/>
</g>
<path id="Vector_7" d="M570.021 23.6573C586.854 26.7966 598.31 43.1667 596.88 61.1148C595.45 79.0587 581.399 92.9007 564.679 92.9886C547.886 93.0807 533.753 79.3852 532.152 61.4748C530.542 43.4555 541.889 26.964 558.909 23.6573L547.157 9.86141L554.213 0.0209283L574.459 0L581.567 9.82793L570.018 23.6573H570.021ZM554.249 8.98661L558.281 1.61148L554.965 1.58218L549.659 8.99498L554.249 8.98661ZM563.744 9.03684V1.61985L559.992 1.64496L555.955 8.99498L563.744 9.03684ZM572.745 8.96568L568.856 1.64078L565.19 1.62822V9.05777L572.745 8.96568ZM579.026 8.96987L573.77 1.58636L570.536 1.59474L574.53 9.02847L579.026 8.96568V8.96987ZM554.136 10.5227L549.881 10.686L560.233 22.636L554.136 10.5227ZM563.756 22.816L563.736 10.573L555.862 10.5981L562.283 23.1007C562.77 23.2137 563.569 23.0965 563.752 22.8202L563.756 22.816ZM567.056 22.2426L572.862 10.6023L565.182 10.5855L565.205 23.1467C566.168 23.3518 566.803 23.0462 567.056 22.2426ZM578.804 10.7237L574.506 10.6358L568.537 22.8746L578.804 10.7278V10.7237ZM564.703 30.0782C579.127 30.2288 590.466 42.7733 590.548 57.8877C590.634 73.4332 578.987 85.9567 564.664 86.0613C550.262 86.166 538.487 73.6592 538.441 58.1723C538.398 42.9784 549.682 30.3042 564.251 30.0614L560.167 25.0554C543.826 27.5249 532.214 43.2965 533.562 60.8511C534.883 78.0667 548.478 91.5027 564.652 91.4148C580.826 91.3269 594.386 77.7026 595.473 60.2651C596.548 42.9784 584.921 27.4579 568.806 25.0512L564.703 30.074V30.0782ZM589.083 58.0718C589.083 43.4848 578.075 31.6603 564.496 31.6603C550.917 31.6603 539.91 43.4848 539.91 58.0718C539.91 72.6589 550.917 84.4834 564.496 84.4834C578.075 84.4834 589.083 72.6589 589.083 58.0718Z" fill="var(--fill-0, #202020)"/>
</g>
</svg>
